<svg xmlns="http://www.w3.org/2000/svg" width="65.401" height="65.393" viewBox="0 0 65.401 65.393">
  <g id="Group_95" data-name="Group 95" transform="translate(-999.298 1429.917) rotate(-90)">
    <path id="Path_115" data-name="Path 115" d="M1364.642,1048.433a22.22,22.22,0,0,1,1.269-3.217,9.337,9.337,0,0,1,5.447-4.24,11.681,11.681,0,0,0,6.308-4.848c1.624-2.379,3.286-4.732,4.843-7.153a41,41,0,0,1,11.966-11.766,115.708,115.708,0,0,1,11.294-6.191,60.587,60.587,0,0,0,10.976-7.04c-.094-.129-.186-.258-.281-.387a1.2,1.2,0,0,1,.269-1.831,29.949,29.949,0,0,1,3.342-1.948,3.337,3.337,0,0,1,3.855.564c1.695,1.566,3.335,3.2,4.9,4.9a3.424,3.424,0,0,1,.5,4.083,34.969,34.969,0,0,1-1.8,3.063c-.523.822-1.228.818-2.4-.032-1.3,1.9-2.743,3.721-3.878,5.716-2.172,3.825-4.177,7.745-6.243,11.63a46.878,46.878,0,0,1-12.153,15.158c-1.589,1.257-3.357,2.287-5.029,3.441-1.918,1.322-3.841,2.635-5.723,4.007a9.829,9.829,0,0,0-3.68,5.115,10.758,10.758,0,0,1-3.565,5.294,8.034,8.034,0,0,1-3.768,1.723,1.368,1.368,0,0,0-.29.111h-1.78a10.917,10.917,0,0,1-4.9-2.656c-1.677-1.488-3.314-3.026-4.882-4.629-2-2.043-3.9-4.18-4.59-7.084Zm20.593-18.921c-.147.212-.269.382-.387.557-1.736,2.556-3.454,5.126-5.214,7.667a13.222,13.222,0,0,1-7.261,5.555,7.673,7.673,0,0,0-3.379,2.07c-1.741,1.794-2.607,4.284-.732,6.815a43.526,43.526,0,0,0,8.606,8.666c2.5,1.914,5.03,1.317,7.024-.629a8.881,8.881,0,0,0,2.211-3.807,11.322,11.322,0,0,1,4.265-5.928c2.9-2.1,5.875-4.083,8.816-6.119.182-.124.357-.256.511-.369Zm26.445,1.016c3.671-6.75,6.646-13.944,11.683-19.8l-4.836-4.894c-.2.156-.426.348-.666.516-1.817,1.281-3.553,2.7-5.472,3.8-3.553,2.05-7.21,3.915-10.826,5.861-.963.518-1.925,1.043-2.842,1.541Zm-24.824-3.21,15.045,15.052a41.356,41.356,0,0,0,8.219-9.428l-13.85-13.857A41.519,41.519,0,0,0,1386.856,1027.318Zm39.369-17.666c.251-.421.518-.847.765-1.285a1.251,1.251,0,0,0-.221-1.624q-2.142-2.162-4.309-4.3a1.181,1.181,0,0,0-1.453-.272c-.5.255-.974.562-1.435.831Z" transform="translate(0 0)" fill="#1b2031" stroke="#fff" stroke-miterlimit="10" stroke-width="0.236"/>
    <path id="Path_116" data-name="Path 116" d="M1385.2,1017.265c-.283.366-.479.831-.817.993a1.925,1.925,0,0,1-1.235-.014c-.274-.076-.49-.38-.713-.6-1.006-1-2.013-1.99-3-3a1.28,1.28,0,1,1,1.79-1.8c1.131,1.108,2.252,2.227,3.35,3.367A5.837,5.837,0,0,1,1385.2,1017.265Z" transform="translate(18.622 16.83)" fill="#1b2031" stroke="#fff" stroke-miterlimit="10" stroke-width="0.236"/>
  </g>
</svg>
