<svg xmlns="http://www.w3.org/2000/svg" width="66.236" height="52.14" viewBox="0 0 66.236 52.14">
  <g id="Group_94" data-name="Group 94" transform="translate(-1277.278 -1002.362)">
    <path id="Path_108" data-name="Path 108" d="M1277.4,1019.229a5.358,5.358,0,0,1,1.181-1.008c10.994-4.875,22.013-9.692,33-14.588a16.215,16.215,0,0,1,9.265-.9,32.263,32.263,0,0,1,13.811,5.286,22.335,22.335,0,0,1,7.677,8.343,9.581,9.581,0,0,1,1.069,4.385c-.035,9.792-.016,19.584-.019,29.376a3.852,3.852,0,0,1-2.873,4.068,5.708,5.708,0,0,1-1.463.161q-14.433.014-28.86,0c-1.6,0-2.117-.789-1.463-2.222a3.858,3.858,0,0,0-5.846-4.7,3.833,3.833,0,0,0-1.132,4.69c.649,1.447.142,2.233-1.451,2.233-6.014,0-12.026-.049-18.037.023-2.712.035-4.324-1.062-4.856-3.323v-11.211a1.759,1.759,0,0,1,1.582-1.008,3.827,3.827,0,0,0-.012-7.638,1.705,1.705,0,0,1-1.571-1.02ZM1280,1028.7c.192.063.352.124.516.173a6.4,6.4,0,0,1-.007,12.286.645.645,0,0,0-.551.756c.023,2.686.011,5.37.011,8.053,0,1.384.423,1.809,1.806,1.809q8.212,0,16.426,0c.222,0,.444-.026.67-.04a6.5,6.5,0,0,1,5.939-7.666,6.317,6.317,0,0,1,4.871,1.781,6.453,6.453,0,0,1,1.894,5.9c.231.011.423.028.612.028q13.435,0,26.865,0c1.3,0,1.746-.45,1.746-1.739q0-14.24,0-28.478v-.67H1280Zm4.978-10.471h55.42c-.376-.707-.663-1.346-1.039-1.93a23.689,23.689,0,0,0-9.3-8.019,30.882,30.882,0,0,0-10.55-3.12,12.4,12.4,0,0,0-6.8.8c-8.986,4-18,7.951-27,11.92C1285.519,1017.962,1285.34,1018.057,1284.98,1018.233Z" fill="#1b2031" stroke="#fff" stroke-miterlimit="10" stroke-width="0.236"/>
    <path id="Path_109" data-name="Path 109" d="M1299.55,1028.738a6.435,6.435,0,1,1,6.52-6.231A6.5,6.5,0,0,1,1299.55,1028.738Zm.072-10.287a3.851,3.851,0,1,0,3.871,3.839A3.866,3.866,0,0,0,1299.622,1018.451Z" transform="translate(21.065 17.881)" fill="#1b2031" stroke="#fff" stroke-miterlimit="10" stroke-width="0.236"/>
    <path id="Path_110" data-name="Path 110" d="M1288.106,1022.8a5.131,5.131,0,1,1,.961-10.21,5.131,5.131,0,0,1-.961,10.21Zm.3-7.675a2.569,2.569,0,0,0-2.591,2.558,2.574,2.574,0,1,0,2.591-2.558Z" transform="translate(7.816 13.475)" fill="#1b2031" stroke="#fff" stroke-miterlimit="10" stroke-width="0.236"/>
    <path id="Path_111" data-name="Path 111" d="M1301.431,1011.452a3.852,3.852,0,1,1-3.822,3.869A3.868,3.868,0,0,1,1301.431,1011.452Zm1.319,3.871a1.279,1.279,0,1,0-1.3,1.239A1.277,1.277,0,0,0,1302.75,1015.323Z" transform="translate(26.957 11.991)" fill="#1b2031" stroke="#fff" stroke-miterlimit="10" stroke-width="0.236"/>
    <path id="Path_112" data-name="Path 112" d="M1304.94,1023.2c0,1.2,0,2.406,0,3.608-.007.954-.492,1.531-1.277,1.54s-1.3-.56-1.3-1.51q-.011-3.606,0-7.215c0-.966.478-1.526,1.272-1.536.817-.009,1.3.562,1.3,1.57,0,1.181,0,2.362,0,3.542Z" transform="translate(33.287 20.835)" fill="#1b2031" stroke="#fff" stroke-miterlimit="10" stroke-width="0.236"/>
    <path id="Path_113" data-name="Path 113" d="M1295.025,1016.246a2.574,2.574,0,1,1-2.5-2.586A2.579,2.579,0,0,1,1295.025,1016.246Z" transform="translate(16.645 14.936)" fill="#1b2031" stroke="#fff" stroke-miterlimit="10" stroke-width="0.236"/>
    <path id="Path_114" data-name="Path 114" d="M1284.744,1019.184a2.564,2.564,0,1,1-2.6,2.553A2.566,2.566,0,0,1,1284.744,1019.184Z" transform="translate(6.335 22.303)" fill="#1b2031" stroke="#fff" stroke-miterlimit="10" stroke-width="0.236"/>
  </g>
</svg>
