<svg xmlns="http://www.w3.org/2000/svg" width="65.79" height="65.79" viewBox="0 0 65.79 65.79">
  <g id="Group_91" data-name="Group 91" transform="translate(-1536.661 -996.97)">
    <path id="Path_93" data-name="Path 93" d="M1568.609,1026.784h-6.556a3.278,3.278,0,0,0,0,6.556h6.556a3.278,3.278,0,1,0,0-6.556Zm0,4.371h-6.556a1.093,1.093,0,1,1,0-2.185h6.556a1.093,1.093,0,1,1,0,2.185Zm0,0" transform="translate(21.706 29.302)" fill="#1b2031" stroke="#fff" stroke-miterlimit="10" stroke-width="0.236"/>
    <path id="Path_94" data-name="Path 94" d="M1556.54,1015.785a1.093,1.093,0,0,0-1.093,1.093v4.371a1.093,1.093,0,1,1-2.185,0v-4.371a1.092,1.092,0,1,0-2.184,0v4.371a3.277,3.277,0,1,0,6.554,0v-4.371a1.092,1.092,0,0,0-1.093-1.093Zm0,0" transform="translate(14.109 18.449)" fill="#1b2031" stroke="#fff" stroke-miterlimit="10" stroke-width="0.236"/>
    <path id="Path_95" data-name="Path 95" d="M1557.588,1004.911l-8.022,8.022a1.093,1.093,0,1,0,1.545,1.546l8.022-8.022a1.093,1.093,0,0,0-1.546-1.546Zm0,0" transform="translate(12.288 7.417)" fill="#1b2031" stroke="#fff" stroke-miterlimit="10" stroke-width="0.236"/>
    <g id="Group_90" data-name="Group 90" transform="translate(1536.779 997.088)">
      <path id="Path_96" data-name="Path 96" d="M1549.109,1012.8l-3.971,3.971a10.94,10.94,0,0,0,0,15.453,1.093,1.093,0,0,0,1.545-1.546,8.753,8.753,0,0,1,0-12.361l3.972-3.974a1.092,1.092,0,0,0-1.546-1.544Zm0,0" transform="translate(-1531.684 -981.887)" fill="#1b2031" stroke="#fff" stroke-miterlimit="10" stroke-width="0.236"/>
      <path id="Path_97" data-name="Path 97" d="M1597.642,997.408a1.09,1.09,0,0,0-1.543,0l-16.708,16.708-7.969-7.969a1.1,1.1,0,0,0-1.546,0l-22.734,22.734a15.315,15.315,0,0,0-.9,20.648h-6.185a3.278,3.278,0,0,0,0,6.556h39.333a3.278,3.278,0,0,0,0-6.556h-6.1l5.036-5.036a3.278,3.278,0,0,0,6.528-.425v-6.1l2.186-2.185v6.1a3.278,3.278,0,1,0,6.556,0v-13.11a1.093,1.093,0,0,0-.32-.773l-7.969-7.969,16.708-16.708a1.09,1.09,0,0,0,0-1.544Zm-6.234,31.815v12.659a1.093,1.093,0,1,1-2.185,0v-8.74a1.092,1.092,0,0,0-1.865-.773l-4.369,4.369a1.087,1.087,0,0,0-.322.773v6.556a1.092,1.092,0,1,1-2.183,0v-2.185a1.093,1.093,0,0,0-1.865-.773l-8.742,8.742a1.092,1.092,0,0,0,.773,1.864h8.742a1.093,1.093,0,0,1,0,2.185h-39.333a1.093,1.093,0,0,1,0-2.185h8.742a1.091,1.091,0,0,0,.771-1.864l-.882-.884a13.124,13.124,0,0,1,0-18.54l21.961-21.961Zm-7.649-10.736-2.825-2.825,15.935-15.938,2.827,2.827Zm0,0" transform="translate(-1536.779 -997.088)" fill="#1b2031" stroke="#fff" stroke-miterlimit="10" stroke-width="0.236"/>
    </g>
  </g>
</svg>
