<svg xmlns="http://www.w3.org/2000/svg" width="107.787" height="93.026" viewBox="0 0 107.787 93.026">
  <g id="Group_2070" data-name="Group 2070" transform="translate(-169.274 -401.699)">
    <g id="Group_98" data-name="Group 98" transform="translate(-1112.333 -652)">
      <path id="Path_121" data-name="Path 121" d="M1303.923,1141c-.351-.087-.7-.171-1.055-.262a7.724,7.724,0,0,1-5.776-7.373.754.754,0,0,0-.536-.8,7.527,7.527,0,0,1-4.618-6.952.787.787,0,0,0-.55-.8,7.525,7.525,0,0,1-4.619-6.95.781.781,0,0,0-.55-.8,7.736,7.736,0,0,1-.044-14.136c.311-.149.571-.238.58-.7a7.76,7.76,0,0,1,5.813-7.483c.1-.028.189-.073.33-.128-.6-.51-1.171-.954-1.7-1.452a14.084,14.084,0,0,1-4.455-10.179c-.026-.861-.026-1.723-.007-2.584a1.285,1.285,0,0,1,1.293-1.4,19.951,19.951,0,0,1,7.209.774,14.066,14.066,0,0,1,6.683,4.854c.192.25.377.505.575.776.615-1.632,1.169-3.208,1.808-4.747a15.4,15.4,0,0,1,2.687-4.38,3.867,3.867,0,0,1,5.537-.454,3.78,3.78,0,0,1,.358,5.429,15.611,15.611,0,0,0-3,6.216,33.276,33.276,0,0,0-1.183,7.114c-.04.638.03,1.132.68,1.412.21.089.379.278.51.257a23.348,23.348,0,0,1,3.5-1.515,7.683,7.683,0,0,1,9.5,7.359.811.811,0,0,0,.571.846,7.723,7.723,0,0,1-.033,14.122.79.79,0,0,0-.552.8,7.542,7.542,0,0,1-4.677,6.98.7.7,0,0,0-.487.708,7.559,7.559,0,0,1-4.679,7.043c-.295.136-.468.26-.479.643a7.674,7.674,0,0,1-6.594,7.665,1.075,1.075,0,0,0-.236.1Zm.9-30.912a5.162,5.162,0,1,0-5.222,5.067A5.2,5.2,0,0,0,1304.821,1110.089Zm-4.527-15.67c-.171-.189-.306-.348-.453-.5q-1.754-1.761-3.51-3.517c-.107-.108-.22-.21-.318-.323a1.317,1.317,0,0,1-.086-1.857,1.291,1.291,0,0,1,1.9.033c1.055,1.015,2.079,2.06,3.11,3.1.388.393.758.8,1.235,1.314a8.453,8.453,0,1,0-1.878,1.747Zm-10.5,20.74a5.163,5.163,0,0,0,2.631-1.022.6.6,0,0,0,.227-.9,7.363,7.363,0,0,1,0-6.482.608.608,0,0,0-.224-.9,5.174,5.174,0,0,0-7.993,5.79A5.409,5.409,0,0,0,1289.792,1115.158Zm19.9-10.329a5.28,5.28,0,0,0-2.794,1.029c-.372.262-.409.486-.22.9a7.411,7.411,0,0,1-.012,6.482.609.609,0,0,0,.234.9,5.174,5.174,0,0,0,7.984-5.8A5.325,5.325,0,0,0,1309.691,1104.829Zm10.628,0a5.465,5.465,0,0,0-3.171,1.1.5.5,0,0,0-.168.748,7.465,7.465,0,0,1,0,6.6.54.54,0,0,0,.192.795,5.155,5.155,0,1,0,3.143-9.241Zm-15.5,10.96a8.235,8.235,0,0,1-5.168,1.976,5.076,5.076,0,0,0,2.928,4.593,4.875,4.875,0,0,0,5.4-.545,4.926,4.926,0,0,0,1.992-4.039A8.225,8.225,0,0,1,1304.821,1115.794Zm5.142,7.761a8.065,8.065,0,0,1-5.086,1.959,5.117,5.117,0,0,0,5.135,5.145c2.883-.059,5.336-2.537,5.07-5.119A8.548,8.548,0,0,1,1309.963,1123.556Zm-.014-21.329a5.144,5.144,0,0,0-5.346-5.137,5.019,5.019,0,0,0-4.843,5.147,7.567,7.567,0,0,0,10.189-.01Zm0,31.062c-2.432-.281-2.771-.412-5.156-1.967a8.156,8.156,0,0,1-5.1,1.948,5.127,5.127,0,1,0,10.254.019Zm-20.634-15.527a5.084,5.084,0,0,0,2.925,4.609,4.958,4.958,0,0,0,5.353-.5c.239-.168.5-.309.292-.718a7.617,7.617,0,0,1-.816-3.479.608.608,0,0,0-.241-.444c-.788-.465-1.595-.9-2.43-1.365A8.072,8.072,0,0,1,1289.319,1117.761Zm31.014-.01a8.069,8.069,0,0,1-5.1-1.887c-.828.465-1.585.865-2.311,1.314a.8.8,0,0,0-.344.571,7.58,7.58,0,0,1-.774,3.292.532.532,0,0,0,.2.8,5.021,5.021,0,0,0,5.413.521A5.09,5.09,0,0,0,1320.333,1117.751Zm-25.781,7.761a5.019,5.019,0,0,0,2.869,4.628,5.1,5.1,0,0,0,5.5-.662.639.639,0,0,0,.105-.582,8.41,8.41,0,0,1-.781-3.491.548.548,0,0,0-.2-.414c-.809-.47-1.635-.91-2.483-1.375A8.048,8.048,0,0,1,1294.552,1125.513Zm25.753-23.33a5.151,5.151,0,0,0-8.306-4.008c-.292.215-.379.4-.2.739a7.362,7.362,0,0,1,.779,3.354.642.642,0,0,0,.192.479c.807.477,1.635.914,2.476,1.375A8.488,8.488,0,0,1,1320.306,1102.182Zm-25.87,1.941c.776-.442,1.464-.879,2.193-1.232.351-.166.4-.365.468-.713a31.833,31.833,0,0,1,.758-3.232c.115-.383.079-.557-.222-.79a5.153,5.153,0,0,0-8.287,4.043A8.457,8.457,0,0,1,1294.436,1104.123Zm11.653-9.529c.1-.957.156-1.875.3-2.783.69-4.394,1.55-8.725,4.562-12.263a1.2,1.2,0,0,0-.138-1.782,1.248,1.248,0,0,0-1.791.138,7.609,7.609,0,0,0-.811,1,25.3,25.3,0,0,0-3.159,7.3c-.437,1.492-1.043,2.972-.454,4.572a2.785,2.785,0,0,1,.115.762c.063.98.115,1.96.171,2.951Z" transform="translate(0 0)" fill="#1b2031"/>
    </g>
    <g id="Group_96" data-name="Group 96" transform="translate(232.138 401.891) rotate(47)">
      <path id="Path_117" data-name="Path 117" d="M1626.383,1019.4a17.967,17.967,0,0,0,1.1,2.618,5.62,5.62,0,0,0,4.49,2.834,55.946,55.946,0,0,1,9.344,1.793c.246.06.492.13.756.2-.195.775-.436,1.517-.566,2.28a9.508,9.508,0,0,0,2.767,8.428,25.464,25.464,0,0,0,4.017,3.453q11.848,8.179,23.787,16.227a66.626,66.626,0,0,0,10.557,5.99c1.686.733,3.488,1.194,5.237,1.779h1.41a7.367,7.367,0,0,0,1.445-.628,3.368,3.368,0,0,0,1.176-3.558,20.019,20.019,0,0,0-2.09-5.946,113.934,113.934,0,0,0-8.161-13.586q-7.382-10.8-14.87-21.526a13.049,13.049,0,0,0-5.436-4.55,9.148,9.148,0,0,0-6.616-.338c-.283.09-.566.183-.923.3-.3-1.183-.654-2.342-.876-3.527-.4-2.134-.8-4.272-1.053-6.424a6.561,6.561,0,0,0-5.292-5.67,6.368,6.368,0,0,0-6.911,3.685c-.079.172-.164.341-.262.545-2.765-1.167-5.36-.939-7.5,1.218-2.115,2.136-2.361,4.708-1.169,7.475a5.972,5.972,0,0,0-3.184,2.479,22.978,22.978,0,0,0-1.171,2.658Zm55.782,27.326c.9,1.47,1.809,2.795,2.563,4.2,1.385,2.591,2.727,5.207,3.982,7.862a10.037,10.037,0,0,1,.673,2.778c.107.7-.132.9-.828.87a4.475,4.475,0,0,1-1.447-.227c-1.967-.807-3.973-1.551-5.854-2.535a150.266,150.266,0,0,1-13.806-8.558,4.324,4.324,0,0,1-.357-.327c.638-.577,1.278-1.083,1.828-1.674a1.221,1.221,0,0,0-.039-1.732,1.286,1.286,0,0,0-1.744-.032,5.658,5.658,0,0,0-.645.624c-.464.52-.916,1.051-1.368,1.57l-10.835-7.493c1.257-1.255,2.461-2.437,3.639-3.643a1.258,1.258,0,0,0,.093-1.883,1.293,1.293,0,0,0-1.885.079c-.818.782-1.614,1.586-2.4,2.4-.517.529-1.009,1.083-1.563,1.679-1.672-1.248-3.268-2.354-4.766-3.581a9.562,9.562,0,0,1-3.075-4.179,7.5,7.5,0,0,1,.87-6.5,24.5,24.5,0,0,1,5.942-6.642,11.829,11.829,0,0,1,4.984-2.637,7.315,7.315,0,0,1,6.615,2c-1.491,1.484-2.929,2.913-4.36,4.346a3.536,3.536,0,0,0-.529.635,1.233,1.233,0,0,0,.209,1.524,1.256,1.256,0,0,0,1.533.158,3.975,3.975,0,0,0,.628-.541c1.417-1.415,2.832-2.836,4.339-4.348l7.5,10.793a4,4,0,0,0-.545.38q-2.136,2.122-4.253,4.26a1.292,1.292,0,1,0,1.795,1.816q1.437-1.412,2.85-2.855c.5-.512.972-1.058,1.515-1.654l7.435,10.977a6.38,6.38,0,0,0-.638.487c-.76.751-1.521,1.5-2.254,2.275a1.2,1.2,0,0,0-.174,1.531,1.135,1.135,0,0,0,1.371.559,2.173,2.173,0,0,0,.842-.543C1680.711,1048.242,1681.4,1047.511,1682.165,1046.725Zm-36.916-24.863c-.552.751-1.094,1.412-1.549,2.131a.751.751,0,0,1-.99.36,57.076,57.076,0,0,0-10.466-2.039,3.785,3.785,0,0,1-3.27-3.377,3.832,3.832,0,0,1,2.266-3.873,1.951,1.951,0,0,1,1.879-.141q5.743,3.291,11.5,6.559C1644.823,1021.6,1645.017,1021.723,1645.249,1021.862Zm3.569-3.579c-.077-.111-.141-.192-.192-.283q-3.406-5.973-6.8-11.948a.972.972,0,0,1-.132-.533,3.823,3.823,0,0,1,7.627.079,22.753,22.753,0,0,0,.332,2.922c.513,2.438,1.109,4.859,1.645,7.294a.924.924,0,0,1-.158.758C1650.412,1017.165,1649.635,1017.692,1648.818,1018.283Zm-2.331,1.141-.1.111q-1.464-.828-2.924-1.656c-3.071-1.753-6.16-3.472-9.2-5.283a3.483,3.483,0,0,1-1.616-3.641,3.78,3.78,0,0,1,2.906-3.194,3.7,3.7,0,0,1,4.193,1.839C1642.035,1011.52,1644.25,1015.482,1646.488,1019.424Z" transform="translate(-1626.383 -999.454)" fill="#1b2031" stroke="#fff" stroke-miterlimit="10" stroke-width="0.236"/>
    </g>
  </g>
</svg>
