<svg xmlns="http://www.w3.org/2000/svg" width="66.408" height="60.923" viewBox="0 0 66.408 60.923">
  <path id="Path_122" data-name="Path 122" d="M1080.921,1038.691a4.262,4.262,0,0,0-5.883-1.136l-8.051,5.388-.023-16.58,2.562,2.4a3.528,3.528,0,0,0,4.824-5.15l-23.527-22.041a3.534,3.534,0,0,0-4.83.007l-7.167,6.753,0-.791a1.693,1.693,0,0,0-1.7-1.689l-5.374.007a1.693,1.693,0,0,0-1.692,1.7l.016,9.019-7.552,7.11a3.529,3.529,0,0,0,2.317,6.1l.105,0a3.517,3.517,0,0,0,2.417-.962l2.555-2.408.012,7.526a20.221,20.221,0,0,0-2.639-.177h-1.4v-.357a3.625,3.625,0,0,0-3.622-3.622h-3a3.629,3.629,0,0,0-3.622,3.622v22.169a3.629,3.629,0,0,0,3.624,3.624h3a3.628,3.628,0,0,0,3.617-3.456l13.437,5.089c.032.012.063.021.093.031a6.8,6.8,0,0,0,1.837.261,6.216,6.216,0,0,0,.978-.077l20.162-2.908a10.047,10.047,0,0,0,4.77-2.135l13.061-11.745A4.258,4.258,0,0,0,1080.921,1038.691Zm-48.578-30.549,4.2-.007,0,2.345-4.191,3.946Zm15.29-1.549-21.833,20.568a1.284,1.284,0,0,1-.891.339,1.248,1.248,0,0,1-1.209-1.281,1.245,1.245,0,0,1,.392-.87l23.467-22.106a1.244,1.244,0,0,1,1.7,0l23.527,22.041a1.245,1.245,0,0,1,.058,1.762,1.275,1.275,0,0,1-1.762.056L1049.2,1006.59A1.144,1.144,0,0,0,1047.632,1006.593Zm15.147,41.61Zm-10.24-8.462-8.159-.938-.014-10.361,8.156-.012Zm7.1,6.259-.056-.572a6.113,6.113,0,0,0-4.763-5.388l-.016-12a1.9,1.9,0,0,0-1.9-1.895l-8.924.011a1.9,1.9,0,0,0-1.9,1.9l.016,10.345a17.589,17.589,0,0,1-4.726-1.914q-.3-.171-.6-.336l-.31-.163c-.1-.052-.2-.1-.3-.154l-.616-.292c-.11-.049-.219-.1-.327-.142s-.2-.089-.3-.128-.224-.093-.338-.138l-.3-.114c-.112-.042-.226-.082-.338-.124s-.212-.073-.32-.11l-.324-.1c-.114-.035-.233-.07-.352-.107l-.3-.086-.4-.1-.028-.007-.014-10.114,16.216-15.278,16.263,15.234.028,20.246-2.5,1.673Zm-27.184-9.183.056.016c.168.051.336.107.5.163l.068-.194-.014.212c.348.119.7.252,1.027.39l.058.026c.168.07.339.145.518.226.161.075.322.152.479.229l.058.03c.156.077.31.159.506.264l.047.026c.154.084.308.168.459.259a19.869,19.869,0,0,0,7.314,2.537l10.485,1.209c.054.007.107.016.163.028a3.849,3.849,0,0,1,3.129,3.416l.019.173-19.413-1.7a1.151,1.151,0,0,0-.833.264,1.14,1.14,0,0,0,.635,2.009l20.818,1.825,3.914.219a.756.756,0,0,0,.159,0l.054,0a.794.794,0,0,0,.124-.023l.053-.012c.035-.011.07-.023.114-.042l.047-.019a1.079,1.079,0,0,0,.154-.086l13.155-8.8a1.968,1.968,0,0,1,2.4,3.108l-13,11.689a7.786,7.786,0,0,1-3.661,1.638l-20.169,2.908a4.218,4.218,0,0,1-1.783-.11l-14.2-5.379v-17.259h1.4a17.734,17.734,0,0,1,3.99.457l.147.035c.158.037.32.079.52.133C1032.109,1036.712,1032.268,1036.759,1032.457,1036.817Zm30.071,11.423Zm-44.59-14.834a1.342,1.342,0,0,1,1.342-1.34h3a1.341,1.341,0,0,1,1.339,1.34v22.169a1.343,1.343,0,0,1-1.339,1.342h-3a1.343,1.343,0,0,1-1.342-1.342Z" transform="translate(-1015.537 -1000.319)" fill="#1b2031" stroke="#fff" stroke-miterlimit="10" stroke-width="0.236"/>
</svg>
