<svg xmlns="http://www.w3.org/2000/svg" width="66.003" height="65.907" viewBox="0 0 66.003 65.907">
  <g id="Group_97" data-name="Group 97" transform="translate(-1015.537 -1074.767)">
    <path id="Path_118" data-name="Path 118" d="M1066.842,1140.557a7.781,7.781,0,0,1-3.428-1.609,6.267,6.267,0,0,1-1.5-7.582,2.446,2.446,0,0,0-.4-3.2c-1.449-1.44-2.979-2.805-4.547-4.12a20.515,20.515,0,0,0-2.624-1.709.914.914,0,0,0-.708-.079c-5.606,2.222-11.284,2.011-16.978.453a41.644,41.644,0,0,1-19.184-11.555,6.593,6.593,0,0,1-1.684-3.525c-.035-.188-.088-.369-.135-.555v-2.181c.362-1.468.62-2.968,1.11-4.391a33.623,33.623,0,0,1,5.483-9.647,49.454,49.454,0,0,1,14.247-12.644,23.8,23.8,0,0,1,8.267-3.149c2.494-.39,4.972-.358,6.958,1.468a41.668,41.668,0,0,1,4.061,4.354,40.559,40.559,0,0,1,7.12,12.949,29.4,29.4,0,0,1,1.356,14.827c-.253,1.356-.771,2.659-1.126,4a1.461,1.461,0,0,0,.037,1,27.576,27.576,0,0,0,5.638,7.007c.161.139.341.258.513.383a2.227,2.227,0,0,0,2.668.165,6.215,6.215,0,0,1,6.962.694,6.4,6.4,0,0,1-4.21,11.375c-.209,0-.42,0-.685,0v.815a6.361,6.361,0,0,1-5.253,6.351,1.546,1.546,0,0,0-.29.114Zm-43.254-27.407c.042.1.046.148.074.172.1.083.2.16.3.237a38.447,38.447,0,0,0,13.871,6.827,23.879,23.879,0,0,0,13.344.021,14.408,14.408,0,0,0,9.421-8.418,21.892,21.892,0,0,0,1.026-12.838,37.775,37.775,0,0,0-6.454-14.865c-.36-.513-.75-1-1.224-1.63a22.791,22.791,0,0,1-3.258,9.523,48.91,48.91,0,0,1-16.214,16.827A24.308,24.308,0,0,1,1023.588,1113.15Zm27.786-30.89c.086-3.179-1.521-4.858-4.682-4.812a17.084,17.084,0,0,0-7.487,2.206,41.913,41.913,0,0,0-10.559,7.84,40.473,40.473,0,0,0-8.969,12.535,14.941,14.941,0,0,0-1.444,6.319,3.966,3.966,0,0,0,4.106,4.217,12.51,12.51,0,0,0,4.709-.764,32.864,32.864,0,0,0,9.99-5.766,45,45,0,0,0,12.294-14.76A16.963,16.963,0,0,0,1051.373,1082.259Zm5.276,38.4c.274.19.46.325.65.455a32.62,32.62,0,0,1,5.81,4.911c1.721,1.9,2.49,4.085,1.075,6.53a3.606,3.606,0,0,0,1.2,4.665,3.823,3.823,0,0,0,5.664-4.842,6.217,6.217,0,0,0-.583-.838,1.369,1.369,0,0,1-.088-1.907c.506-.525,1.219-.5,1.953.077.1.079.193.169.3.244a3.679,3.679,0,0,0,3.876.411,3.626,3.626,0,0,0,2.236-3.323,3.83,3.83,0,0,0-5.627-3.555,4.742,4.742,0,0,1-2.485.706,5.819,5.819,0,0,1-3.344-1.466,29.342,29.342,0,0,1-5.441-6.27c-.123-.179-.256-.353-.418-.581A17.155,17.155,0,0,1,1056.65,1120.655Z" transform="translate(0 0)" fill="#1b2031" stroke="#fff" stroke-miterlimit="10" stroke-width="0.236"/>
    <path id="Path_119" data-name="Path 119" d="M1037,1089.628c.084,3.857-.346,6.846-1.853,9.607-.474.866-1.249,1.159-1.944.711a1.31,1.31,0,0,1-.4-1.749,25.709,25.709,0,0,0,1.173-3.03,18.386,18.386,0,0,0,.088-8.188,7.081,7.081,0,0,1-.121-.822,1.254,1.254,0,0,1,1.024-1.407,1.213,1.213,0,0,1,1.465,1.012C1036.692,1087.292,1036.885,1088.836,1037,1089.628Z" transform="translate(22.456 13.045)" fill="#1b2031" stroke="#fff" stroke-miterlimit="10" stroke-width="0.236"/>
    <path id="Path_120" data-name="Path 120" d="M1036.352,1082.9a8.294,8.294,0,0,1-1.286,3.843,19.181,19.181,0,0,1-8.676,8.065,8.482,8.482,0,0,1-3.077.722,3.16,3.16,0,0,1-3.319-3.6,10.217,10.217,0,0,1,2.1-5.218A19.47,19.47,0,0,1,1030,1079.9a6.285,6.285,0,0,1,3.346-.673C1035.307,1079.457,1036.392,1080.722,1036.352,1082.9Zm-2.42-.1c-.118-.822-.427-1.124-1.191-1.033a4.151,4.151,0,0,0-1.117.262,16.332,16.332,0,0,0-8.62,8.332,5.706,5.706,0,0,0-.425,1.468c-.158.9.249,1.317,1.15,1.145a7.18,7.18,0,0,0,1.816-.585,16.816,16.816,0,0,0,7.264-6.9A21.682,21.682,0,0,0,1033.932,1082.8Z" transform="translate(5.725 5.733)" fill="#1b2031" stroke="#fff" stroke-miterlimit="10" stroke-width="0.236"/>
  </g>
</svg>
