<svg xmlns="http://www.w3.org/2000/svg" width="64.912" height="68.336" viewBox="0 0 64.912 68.336">
  <g id="Group_2053" data-name="Group 2053" transform="translate(-1652 -414.664)">
    <g id="Group_2050" data-name="Group 2050" transform="translate(1388.71 338.96)">
      <path id="Path_2498" data-name="Path 2498" d="M321.711,133.838a28.71,28.71,0,0,1-57.421,0,27.465,27.465,0,0,1,.188-3.229c.006-.108.023-.211.034-.319h56.982A29.153,29.153,0,0,1,321.711,133.838Z" transform="translate(0 -22.928)" fill="none" stroke="#000" stroke-miterlimit="10" stroke-width="2"/>
      <rect id="Rectangle_1415" data-name="Rectangle 1415" width="22.901" height="3.421" transform="translate(281.55 139.62)" fill="none" stroke="#000" stroke-miterlimit="10" stroke-width="2"/>
      <path id="Path_2503" data-name="Path 2503" d="M0,18.156,37.562,0" transform="translate(284.833 77.04)" fill="none" stroke="#000" stroke-linecap="round" stroke-width="2"/>
      <path id="Path_2502" data-name="Path 2502" d="M0,9.825,40.226,0" transform="translate(286.767 87.963)" fill="none" stroke="#000" stroke-linecap="round" stroke-width="2"/>
      <path id="Path_2500" data-name="Path 2500" d="M0,2.886V14.269" transform="translate(293.646 92.99)" fill="none" stroke="#000" stroke-linecap="round" stroke-width="2"/>
      <path id="Path_2501" data-name="Path 2501" d="M0,0,.041,1.561.327,12.487" transform="translate(288.79 94.875)" fill="none" stroke="#000" stroke-linecap="round" stroke-width="2"/>
      <line id="Line_222" data-name="Line 222" y2="11.921" transform="translate(285.121 95.441)" fill="none" stroke="#000" stroke-linecap="round" stroke-miterlimit="10" stroke-width="2"/>
    </g>
    <path id="Path_2499" data-name="Path 2499" d="M7573,282.576s-1.271,16.941-22.676,22.676" transform="translate(-5866 169)" fill="none" stroke="#000" stroke-width="2"/>
  </g>
</svg>
