<svg xmlns="http://www.w3.org/2000/svg" width="66.685" height="72.217" viewBox="0 0 66.685 72.217">
  <g id="Group_2049" data-name="Group 2049" transform="matrix(0.848, -0.53, 0.53, 0.848, -618.754, 163.947)">
    <g id="Ellipse_106" data-name="Ellipse 106" transform="translate(618.031 247.642) rotate(-77)" fill="none" stroke="#000" stroke-width="2">
      <ellipse cx="4.445" cy="12.891" rx="4.445" ry="12.891" stroke="none"/>
      <ellipse cx="4.445" cy="12.891" rx="3.445" ry="11.891" fill="none"/>
    </g>
    <g id="Ellipse_111" data-name="Ellipse 111" transform="translate(607.26 268.272) rotate(-103)" fill="none" stroke="#000" stroke-width="2">
      <ellipse cx="4.445" cy="20.004" rx="4.445" ry="20.004" stroke="none"/>
      <ellipse cx="4.445" cy="20.004" rx="3.445" ry="19.004" fill="none"/>
    </g>
    <g id="Ellipse_107" data-name="Ellipse 107" transform="translate(621.363 217.439) rotate(-31)" fill="none" stroke="#000" stroke-width="2">
      <ellipse cx="4.445" cy="15.559" rx="4.445" ry="15.559" stroke="none"/>
      <ellipse cx="4.445" cy="15.559" rx="3.445" ry="14.559" fill="none"/>
    </g>
    <g id="Ellipse_108" data-name="Ellipse 108" transform="translate(633.482 234.082) rotate(110)" fill="none" stroke="#000" stroke-width="2">
      <ellipse cx="4.445" cy="20.004" rx="4.445" ry="20.004" stroke="none"/>
      <ellipse cx="4.445" cy="20.004" rx="3.445" ry="19.004" fill="none"/>
    </g>
    <g id="Ellipse_112" data-name="Ellipse 112" transform="translate(597.946 223.946) rotate(-110)" fill="none" stroke="#000" stroke-width="2">
      <ellipse cx="4.445" cy="20.004" rx="4.445" ry="20.004" stroke="none"/>
      <ellipse cx="4.445" cy="20.004" rx="3.445" ry="19.004" fill="none"/>
    </g>
    <g id="Ellipse_109" data-name="Ellipse 109" transform="translate(606.34 238.272)" fill="none" stroke="#000" stroke-width="2">
      <ellipse cx="5" cy="10" rx="5" ry="10" stroke="none"/>
      <ellipse cx="5" cy="10" rx="4" ry="9" fill="none"/>
    </g>
    <g id="Ellipse_110" data-name="Ellipse 110" transform="translate(591.52 236.876) rotate(-14)" fill="none" stroke="#000" stroke-width="2">
      <ellipse cx="4.445" cy="15.003" rx="4.445" ry="15.003" stroke="none"/>
      <ellipse cx="4.445" cy="15.003" rx="3.445" ry="14.003" fill="none"/>
    </g>
  </g>
</svg>
