<svg xmlns="http://www.w3.org/2000/svg" width="69.41" height="79.334" viewBox="0 0 69.41 79.334">
  <g id="Group_2041" data-name="Group 2041" transform="translate(-113.232 31.548) rotate(-30)">
    <path id="Path_2469" data-name="Path 2469" d="M141.257,48H107.148a2.389,2.389,0,0,0-2.389,2.387v61.225A2.389,2.389,0,0,0,107.148,114h34.109a2.389,2.389,0,0,0,2.391-2.388V50.387A2.389,2.389,0,0,0,141.257,48ZM118.7,83.085h-6.909a2.372,2.372,0,0,1-2.373-2.372V72.7a2.372,2.372,0,0,1,2.371-2.371H118.7a2.371,2.371,0,0,1,2.371,2.371v8.015A2.372,2.372,0,0,1,118.7,83.085Zm2.372-20.037A2.371,2.371,0,0,1,118.7,65.42h-6.914a2.375,2.375,0,0,1-2.369-2.38v-8a2.375,2.375,0,0,1,2.369-2.381H118.7a2.371,2.371,0,0,1,2.371,2.371ZM127.822,79.4V71.84a2.372,2.372,0,0,1,2.371-2.372h6.929a2.368,2.368,0,0,1,1.985,1.074ZM139.231,63.04a2.374,2.374,0,0,1-2.368,2.38h-6.915a2.371,2.371,0,0,1-2.371-2.371V55.033a2.372,2.372,0,0,1,2.371-2.371h6.915a2.375,2.375,0,0,1,2.368,2.381Z" transform="translate(-0.146)" fill="none" stroke="#000" stroke-miterlimit="10" stroke-width="2"/>
    <path id="Path_2470" data-name="Path 2470" d="M122.181,56.139v8.016a2.371,2.371,0,0,1-2.371,2.371H112.9a2.375,2.375,0,0,1-2.369-2.38v-8a2.375,2.375,0,0,1,2.369-2.381h6.914A2.371,2.371,0,0,1,122.181,56.139Z" transform="translate(-1.252 -1.106)" fill="none" stroke="#000" stroke-miterlimit="10" stroke-width="2"/>
    <path id="Rectangle_1412" data-name="Rectangle 1412" d="M2.934,0H8.719a2.936,2.936,0,0,1,2.936,2.936V9.823a2.936,2.936,0,0,1-2.936,2.936H2.934A2.934,2.934,0,0,1,0,9.824V2.934A2.934,2.934,0,0,1,2.934,0Z" transform="translate(109.275 70.327)" fill="none" stroke="#000" stroke-miterlimit="10" stroke-width="2"/>
    <path id="Path_2471" data-name="Path 2471" d="M144.582,75.637,133.3,84.5V76.935a2.372,2.372,0,0,1,2.371-2.372H142.6A2.368,2.368,0,0,1,144.582,75.637Z" transform="translate(-5.619 -5.095)" fill="none" stroke="#000" stroke-miterlimit="10" stroke-width="2"/>
    <path id="Path_2472" data-name="Path 2472" d="M144.646,56.149v8a2.374,2.374,0,0,1-2.368,2.38h-6.915a2.371,2.371,0,0,1-2.371-2.371V56.139a2.372,2.372,0,0,1,2.371-2.371h6.915A2.375,2.375,0,0,1,144.646,56.149Z" transform="translate(-5.561 -1.106)" fill="none" stroke="#000" stroke-miterlimit="10" stroke-width="2"/>
    <path id="Path_2473" data-name="Path 2473" d="M122.181,56.139v8.016a2.371,2.371,0,0,1-2.371,2.371H112.9a2.375,2.375,0,0,1-2.369-2.38v-8a2.375,2.375,0,0,1,2.369-2.381h6.914A2.371,2.371,0,0,1,122.181,56.139Z" transform="translate(-1.252 -1.106)" fill="none" stroke="#000" stroke-miterlimit="10" stroke-width="2"/>
    <path id="Rectangle_1413" data-name="Rectangle 1413" d="M2.934,0H8.719a2.936,2.936,0,0,1,2.936,2.936V9.823a2.936,2.936,0,0,1-2.936,2.936H2.934A2.934,2.934,0,0,1,0,9.824V2.934A2.934,2.934,0,0,1,2.934,0Z" transform="translate(109.275 70.327)" fill="none" stroke="#000" stroke-miterlimit="10" stroke-width="2"/>
    <path id="Path_2474" data-name="Path 2474" d="M144.646,56.149v8a2.374,2.374,0,0,1-2.368,2.38h-6.915a2.371,2.371,0,0,1-2.371-2.371V56.139a2.372,2.372,0,0,1,2.371-2.371h6.915A2.375,2.375,0,0,1,144.646,56.149Z" transform="translate(-5.561 -1.106)" fill="none" stroke="#000" stroke-miterlimit="10" stroke-width="2"/>
    <path id="Path_2475" data-name="Path 2475" d="M144.582,75.637,133.3,84.5V76.935a2.372,2.372,0,0,1,2.371-2.372H142.6A2.368,2.368,0,0,1,144.582,75.637Z" transform="translate(-5.619 -5.095)" fill="none" stroke="#000" stroke-miterlimit="10" stroke-width="2"/>
    <line id="Line_211" data-name="Line 211" x1="24.128" y2="18.94" transform="translate(104.261 78.818)" fill="none" stroke="#000" stroke-miterlimit="10" stroke-width="2"/>
    <line id="Line_212" data-name="Line 212" x1="4.79" y2="3.76" transform="translate(138.985 66.724)" fill="none" stroke="#000" stroke-miterlimit="10" stroke-width="2"/>
    <line id="Line_213" data-name="Line 213" y1="0.123" x2="39.379" transform="translate(104 107.989)" fill="none" stroke="#000" stroke-miterlimit="10" stroke-width="2"/>
    <line id="Line_214" data-name="Line 214" y1="14.3" x2="34.513" transform="translate(105.199 83.042)" fill="none" stroke="#000" stroke-linecap="round" stroke-miterlimit="10" stroke-width="2"/>
    <line id="Line_215" data-name="Line 215" x1="3.509" y2="15.718" transform="translate(139.712 67.324)" fill="none" stroke="#000" stroke-linecap="round" stroke-miterlimit="10" stroke-width="2"/>
    <line id="Line_216" data-name="Line 216" x2="10.059" transform="translate(124.364 103.818)" fill="none" stroke="#000" stroke-linecap="round" stroke-miterlimit="10" stroke-width="2"/>
    <line id="Line_217" data-name="Line 217" y2="3.558" transform="translate(139.821 90.201)" fill="none" stroke="#000" stroke-linecap="round" stroke-miterlimit="10" stroke-width="2"/>
  </g>
</svg>
