<svg xmlns="http://www.w3.org/2000/svg" width="53.429" height="65.124" viewBox="0 0 53.429 65.124">
  <g id="Group_93" data-name="Group 93" transform="translate(-1192.688 -999.445)">
    <path id="Path_104" data-name="Path 104" d="M1197.777,1022.34v10.176h-1.271a3.824,3.824,0,0,0-3.818,3.809l.007,24.417a3.817,3.817,0,0,0,3.815,3.827H1242.3a3.822,3.822,0,0,0,3.815-3.811l0-24.417a3.817,3.817,0,0,0-3.818-3.825h-1.271v-8.9a6.336,6.336,0,0,0-1.78-4.405,3.815,3.815,0,0,0-2.036-7.042h-12.72a3.813,3.813,0,0,0-2.036,7.039,6.343,6.343,0,0,0-1.78,4.407v8.9h-2.544V1022.34a10.231,10.231,0,0,0-5.087-8.814v-6.666a3.817,3.817,0,0,0-1.273-7.415h-7.631a3.815,3.815,0,0,0-1.271,7.412v6.668A10.234,10.234,0,0,0,1197.777,1022.34Zm45.418,13.093a1.263,1.263,0,0,1,.373.905l.007,24.418a1.275,1.275,0,0,1-1.273,1.269H1196.51a1.27,1.27,0,0,1-1.271-1.278l-.007-24.418a1.277,1.277,0,0,1,1.273-1.271h45.789A1.259,1.259,0,0,1,1243.195,1035.433Zm-8.531-15.637a3.819,3.819,0,0,1,3.815,3.815v1.271h-15.262v-1.271a3.819,3.819,0,0,1,3.815-3.815Zm-10.176-5.089h12.72a1.272,1.272,0,0,1,0,2.544h-12.72a1.272,1.272,0,0,1,0-2.544Zm-1.271,12.72h15.262v5.089h-15.262Zm-22.9,5.089v-7.633h15.262v7.633Zm15.262-10.176h-15.262a7.671,7.671,0,0,1,4.361-6.9,1.269,1.269,0,0,0,.726-1.149v-7.217h5.089v7.217a1.273,1.273,0,0,0,.725,1.149A7.671,7.671,0,0,1,1215.583,1022.34Zm-11.447-20.353h7.631a1.272,1.272,0,1,1,0,2.544h-7.631a1.272,1.272,0,0,1,0-2.544Z" transform="translate(0 0)" fill="#1b2031"/>
    <path id="Path_105" data-name="Path 105" d="M1228.906,1017.452h-30.527a1.273,1.273,0,0,0-1.271,1.273v12.72a1.271,1.271,0,0,0,1.271,1.271h30.527a1.272,1.272,0,0,0,1.273-1.271v-12.72A1.274,1.274,0,0,0,1228.906,1017.452Zm-1.271,12.72H1199.65V1020h27.984Z" transform="translate(5.758 23.457)" fill="#1b2031"/>
    <path id="Path_106" data-name="Path 106" d="M1200.588,1022.758h5.089a1.272,1.272,0,0,0,0-2.544h-5.089a1.272,1.272,0,0,0,0,2.544Z" transform="translate(8.635 27.055)" fill="#1b2031"/>
    <path id="Path_107" data-name="Path 107" d="M1207.217,1022.758h5.089a1.272,1.272,0,0,0,0-2.544h-5.089a1.272,1.272,0,0,0,0,2.544Z" transform="translate(17.271 27.055)" fill="#1b2031"/>
  </g>
</svg>
